<?xml version="1.0" encoding="UTF-8"?>
<svg version="1.1" viewBox="0 0 1157 1112" width="1157" height="1112" xmlns="http://www.w3.org/2000/svg">
<path transform="translate(593,192)" d="m0 0 3 3 6 9 2 7 1 61 6 130 2 54v45l-6 17-3 11-2-3-5-10-5-4-10-3-6-7-5-10-2-7v-22l2-16 5-35 4-42 7-107 4-45 2-7v-7l-1-3v-8z" fill="#CA538D"/>
<path transform="translate(675,263)" d="m0 0h2l6 11 1 4v9l-14 73-5 35-8 98v32l3 15 3 12-1 3-7-13-5-6v-2l-4-2-7-1-12 5-8 6-6 9-2 5-2-2-1-3v-16l4-14 9-24 8-26 8-37 12-74 6-29 7-26 7-20 5-10-1-8z" fill="#CA528D"/>
<path transform="translate(513,281)" d="m0 0h2l1 2v7l-1 7 4 13 8 44 7 28 7 19 11 26 7 21 7 28 8 40 2 15v15l-3-4-8-13-6-7-7-1-6 4-11 17-8 12-11 12-7 6-2-1 10-16 11-23 5-17v-18l-6-36-8-45-7-52-6-55v-14z" fill="#CA528D"/>
<path transform="translate(765,498)" d="m0 0h2l2 6-1 9-14 21-8 14-7 19-8 30-8 20-10 19-3 2-8-9-3-5-5-1-7 4 1-8 7-14 9-11 7-8 8-15 12-27 10-16 8-10 8-9 5-4z" fill="#CA528D"/>
<path transform="translate(414,505)" d="m0 0 7 3 5 6 10 25 9 17 9 11 10 11 10 16 8 16 7 16 2 10-7-6-5-4-6-1-5 5-3 9-5-4-7-16-8-23-13-29-9-28-5-20-1-7-4-4z" fill="#CA528C"/>
<path transform="translate(352,666)" d="m0 0 4 1 1 5 6 2 7 7 7 8 10 10 12 9 17 9 19 8 11 6 12 8 13 10 6 7-4 1-7-1h-8l-9 3-1 1v11l4 15 1 4-4-4-6-12-6-15-8-10-10-8-19-12-10-8-16-16-10-13-10-15z" fill="#CA528C"/>
<path transform="translate(809,659)" d="m0 0h3v7l-4 7-12 9-11 9-9 9-9 14-11 21-6 10-5 10-9 10-5 4 2-4 7-11 2-5v-7l-5-3-6-1h-11l-18 2 3-3 11-5 12-6 14-11 9-11 11-12 13-11 21-13 10-4z" fill="#CA538D"/>
<path transform="translate(511,577)" d="m0 0h14l8 4 4 5 2 5v8l-3 6-6 5-3 1h-7l-7-4-1-2v-8l5-5h6l2 1-4-4h-8l-6 4-3 6-1 5v7l2-1 10 1 6 3 9 1-5 5-17 11-8 7-4 6h-1l-3-32v-13l4-11 6-7z" fill="#CA538D"/>
<path transform="translate(710,755)" d="m0 0h1l2 26 1 7v11l-3 10-6 8-10 5h-14l-8-4-4-5-2-5v-8l3-6 6-5 3-1h7l7 4 1 2v8l-5 5h-6l-2-1 4 4h8l6-4 3-6 1-5v-8l-3 2-8-1-7-3-9-1 5-5 17-11 7-6z" fill="#CA538D"/>
<path transform="translate(469,654)" d="m0 0 8 1 7 4 4 5 2 4v16l-5 20v19l-19-6-6-5-4-8v-7l3-5 7-6 9-6 2-3v-8l-1-3-8-1 5 3 1 7-3 4-9 1-5-3-3-7 2-9 6-5z" fill="#CA528D"/>
<path transform="translate(655,580)" d="m0 0h11l10 4 7 8 3 9v12l-6 24-2 10-4-5-7-9-9-10-1-5 4-4 7-4 2-4 4 1 3 4-1-8-6-7-2-1h-6l3 3v6l-2 4-6 3h-7l-6-3-4-5-1-3v-7l4-7 8-5z" fill="#CA528C"/>
<path transform="translate(476,759)" d="m0 0 3 4 7 9 10 11 1 5-4 4-7 4-2 4-4-1-3-4 1 8 3 5 5 3h5l-2-3v-6l4-5 5-2 8 1 6 4 3 6v7l-3 6-6 5-6 2h-13l-9-4-7-8-3-8v-13l5-19z" fill="#CA538D"/>
<path transform="translate(693,626)" d="m0 0h2l6 9 8 8 2 4v6l-5 6-2 2 2-1h6l3 6-1 7-9 9-3 9-2 3-9-9-5-8-3-9-1-5v-11l3-12 6-12z" fill="#CA528D"/>
<path transform="translate(629,542)" d="m0 0h9l10 4 10 10 8 12 7 8v2l-9-2h-13l-13 4h-5l-2-3 1-5 1-1-8-2-4-5-5-2 2-10 4-6 4-3z" fill="#CA528C"/>
<path transform="translate(549,539)" d="m0 0h7l10 5 7 8 1 3-10 5-8 7-7 1-1 7-5 3-7-1-7-3-13-1-4-1 8-6 8-8 7-9 9-8z" fill="#CA528D"/>
<path transform="translate(633,835)" d="m0 0h8l8 3 5 4 2 6v6l-4 4-15 5-16 3-18 1 4-10 7-9 4-5 9-6z" fill="#CA528D"/>
<path transform="translate(532,835)" d="m0 0h10l9 3 6 5 12 22 1 2h-8l-20-4-21-7-6-3 1-6 4-6 8-5z" fill="#CA528D"/>
<path transform="translate(521,810)" d="m0 0 5 3 16 5 11 6 7 8 1 5-13-5-4-1h-13l-10 4-6 5-2 4-1 6-4-4-1-3v-11l4-8 8-9z" fill="#CA528C"/>
<path transform="translate(647,819)" d="m0 0 14 1h13l-3 23-5 8-4 3-2-12-4-6-9-5-10-1-13 4-4 2 2-5 5-5 7-4 6-2z" fill="#CB568F"/>
<path transform="translate(579,520)" d="m0 0 6 1 8 5 4 5 4 11 4 13 1 3-17-2-6-4-2-4-1-23z" fill="#CA538D"/>
<path transform="translate(716,677)" d="m0 0 4 1 4 6 2 11-3 10-7 9-2 1-6-14-3-6 1-9 6-7z" fill="#CB548E"/>
<path transform="translate(718,739)" d="m0 0 9 1 4 4 1 8-4 13-2 4h-2l-4-8-4-5-10-6-7-3 3-3 11-4z" fill="#CB558F"/>
<path transform="translate(476,632)" d="m0 0 5 2 9 6 3 6v10l-2 7-3-4-4-4-15-4-2-2v-8l7-8z" fill="#CA528D"/>
<path transform="translate(580,853)" d="m0 0h14l7 4 1 5-4 4-5 2h-12l-8-4-1-5 5-5z" fill="#CA538D"/>
<path transform="translate(689,713)" d="m0 0h7l5 5 1 5-3 6-4 2h-6l-5-4-1-7 3-5z" fill="#CB548E"/>
<path transform="translate(645,784)" d="m0 0h7l5 5v8l-6 5h-6l-5-4-1-2v-6l4-5z" fill="#CA538D"/>
<path transform="translate(600,761)" d="m0 0h7l5 5 1 5-3 6-4 2-8-1-4-6 1-7z" fill="#CB568F"/>
<path transform="translate(645,737)" d="m0 0h6l6 5v8l-5 5h-7l-5-4-1-2v-6l4-5z" fill="#CA538D"/>
<path transform="translate(616,701)" d="m0 0 6 2 3 3 1 6-3 5-5 3-6-1-4-4-1-6 3-5 2-2z" fill="#CC5790"/>
<path transform="translate(569,682)" d="m0 0h6l5 3 1 2v8l-5 5h-7l-5-4-1-7 3-5z" fill="#CA528C"/>
<path transform="translate(636,654)" d="m0 0h7l5 5v8l-4 4-2 1h-6l-5-4-1-8 4-5z" fill="#CA528C"/>
<path transform="translate(594,811)" d="m0 0 7 1 4 5v6l-2 4-3 2h-8l-5-5v-7l4-5z" fill="#CA528C"/>
<path transform="translate(564,784)" d="m0 0h7l5 5v7l-4 5-2 1h-6l-5-4-1-2v-6l4-5z" fill="#CA538D"/>
<path transform="translate(562,728)" d="m0 0 8 1 4 5v6l-5 6h-8l-5-5v-7l4-5z" fill="#CA528C"/>
<path transform="translate(512,668)" d="m0 0 7 1 4 5v7l-5 5h-8l-4-4-1-2v-6l4-5z" fill="#CA538D"/>
<path transform="translate(593,635)" d="m0 0 8 1 4 5v6l-5 6h-8l-5-5v-7l4-5z" fill="#CA528C"/>
<path transform="translate(620,604)" d="m0 0 6 2 3 3 1 7-3 5-4 2-7-1-4-4-1-5 2-5 3-3z" fill="#CB558E"/>
<path transform="translate(559,601)" d="m0 0 6 1 4 4 1 7-3 5-7 2-5-2-3-4v-7l4-5z" fill="#CB558F"/>
<path transform="translate(514,717)" d="m0 0 6 1 4 4 1 7-5 6-5 1-5-2-3-4v-8l4-4z" fill="#CB558E"/>
<path transform="translate(523,766)" d="m0 0 6 1 4 4 1 6-3 5-5 3-6-1-4-4-1-5 2-5 3-3z" fill="#CB568F"/>
<path transform="translate(652,693)" d="m0 0h8l4 4 1 7-3 5-4 2-7-1-4-4-1-5 3-6z" fill="#CA538D"/>
<path transform="translate(544,639)" d="m0 0h7l5 4 1 7-3 5-4 2-7-1-4-4v-8z" fill="#CA528C"/>
<path transform="translate(588,577)" d="m0 0h8l5 6-1 7-4 4-6 1-5-3-2-2-1-5 3-6z" fill="#CA538D"/>
<path transform="translate(458,759)" d="m0 0h10l5 2-5 4-5 5-4 7-3 4-4-9v-8l4-4z" fill="#CB558E"/>
<path transform="translate(680,826)" d="m0 0 7 1 3 3 1 4-3 5-2 1h-7l-4-4v-6z" fill="#CA548D"/>
<path transform="translate(493,828)" d="m0 0 7 1 3 3v6l-4 4h-7l-4-4v-6z" fill="#CA548E"/>
<path transform="translate(455,680)" d="m0 0 5 2 1 5-3 3h-5l-3-3 1-5z" fill="#CB558E"/>
<path transform="translate(451,717)" d="m0 0 5 1 1 6-4 3-5-2-1-5z" fill="#CC5A92"/>
<path transform="translate(481,826)" d="m0 0 5 1 1 3-1 2h-5l-1-5z" fill="#CE5F95"/>
<path transform="translate(674,841)" d="m0 0 5 1-1 4h-4l-1-4z" fill="#CD5D94"/>
<path transform="translate(448,705)" d="m0 0 4 1-1 4h-4l-1-3z" fill="#CE6096"/>
<path transform="translate(450,693)" d="m0 0h4v4l-3 1-2-1z" fill="#CF6297"/>
<path transform="translate(500,843)" d="m0 0 3 1-2 2-2-2z" fill="#D1699C"/>
<path transform="translate(477,757)" d="m0 0" fill="#CA518C"/>
<path transform="translate(674,579)" d="m0 0" fill="#CA518C"/>
<path transform="translate(673,578)" d="m0 0" fill="#CA518C"/>
<path transform="translate(506,572)" d="m0 0" fill="#CA518C"/>
</svg>
