<svg id="visual" viewBox="0 0 900 600" width="900" height="600" xmlns="http://www.w3.org/2000/svg" xmlns:xlink="http://www.w3.org/1999/xlink" version="1.1"><path d="M0 473L11.5 469.8C23 466.7 46 460.3 69 470.7C92 481 115 508 138.2 521.2C161.3 534.3 184.7 533.7 207.8 514.7C231 495.7 254 458.3 277 447.7C300 437 323 453 346 465.2C369 477.3 392 485.7 415.2 491.8C438.3 498 461.7 502 484.8 488.5C508 475 531 444 554 450.7C577 457.3 600 501.7 623 511.5C646 521.3 669 496.7 692.2 488.8C715.3 481 738.7 490 761.8 502.2C785 514.3 808 529.7 831 517C854 504.3 877 463.7 888.5 443.3L900 423L900 601L888.5 601C877 601 854 601 831 601C808 601 785 601 761.8 601C738.7 601 715.3 601 692.2 601C669 601 646 601 623 601C600 601 577 601 554 601C531 601 508 601 484.8 601C461.7 601 438.3 601 415.2 601C392 601 369 601 346 601C323 601 300 601 277 601C254 601 231 601 207.8 601C184.7 601 161.3 601 138.2 601C115 601 92 601 69 601C46 601 23 601 11.5 601L0 601Z" fill="#CD528F" stroke-linecap="round" stroke-linejoin="miter"></path></svg>